<?xml version="1.0" encoding="utf-8"?>
<!-- Generator: Adobe Illustrator 23.0.0, SVG Export Plug-In . SVG Version: 6.00 Build 0)  -->
<svg version="1.1" id="Capa_1" width="50" xmlns="http://www.w3.org/2000/svg" xmlns:xlink="http://www.w3.org/1999/xlink" x="0px" y="0px"
	 viewBox="0 0 550 550" style="enable-background:new 0 0 550 550;" xml:space="preserve">
<style type="text/css">
	.st0{fill:#FFFFFF;}
</style>
<g>
	<path class="st0" d="M473.1,155.8V76.9H343.3c-37.7,0-68.3,30.6-68.3,68.3v327.4h54.3V324.8h89.3v147.8h54.5V268.2H314v-11.8h159.1
		v-38.5H314v-11.8h159.1v-38.5H314v-11.8L473.1,155.8L473.1,155.8z"/>
	<g>
		<path class="st0" d="M275.1,76.9H145.3c-37.7,0-68.3,30.6-68.3,68.3c-0.1,0-0.1,327.4-0.1,327.4h54.7v-65.2
			c0-12.6,10.2-22.9,22.9-22.9h42.9c12.6,0,22.9,10.2,22.9,22.9v65.2H275V76.9H275.1z M233.7,245.8c0,16.5-13.4,29.8-29.8,29.8H176
			V218h-57.5v-27.8c-0.1-16.5,13.1-29.8,29.6-29.8H176V218h57.7V245.8z"/>
		<rect x="131.6" y="472.6" class="st0" width="88.8" height="0.5"/>
	</g>
</g>
</svg>
