<?xml version="1.0" encoding="utf-8"?>
<!-- Generator: Adobe Illustrator 23.0.0, SVG Export Plug-In . SVG Version: 6.00 Build 0)  -->
<svg version="1.1" width="50" id="Capa_1" xmlns="http://www.w3.org/2000/svg" xmlns:xlink="http://www.w3.org/1999/xlink" x="0px" y="0px"
	 viewBox="0 0 550 550" style="enable-background:new 0 0 550 550;" xml:space="preserve">
<style type="text/css">
	.st0{fill:#FFFFFF;}
</style>
<g>
	<rect x="76.9" y="444.7" class="st0" width="396.2" height="33.3"/>
	<g>
		<polygon class="st0" points="129.4,378.6 123.9,400.4 118.6,422.2 138.6,416.3 158.6,410.5 144,394.5 		"/>
		<path class="st0" d="M418.1,368.1L418.1,368.1c-3.9-15.4-16.4-24.1-29.1-24L304.2,252l127.1-138.3l-29.2-31.8L275,220.2L147.9,82
			l-29.2,31.8l127.1,138.3L129.4,378.6l29.2,31.9L275,283.9l84.8,92.1c-0.1,13.9,7.9,27.5,22,31.7h0.1l49.6,14.4L418.1,368.1z"/>
	</g>
</g>
</svg>
