<?xml version="1.0" encoding="utf-8"?>
<!-- Generator: Adobe Illustrator 23.0.0, SVG Export Plug-In . SVG Version: 6.00 Build 0)  -->
<svg version="1.1" id="Capa_1" width="50" xmlns="http://www.w3.org/2000/svg" xmlns:xlink="http://www.w3.org/1999/xlink" x="0px" y="0px"
	 viewBox="0 0 550 550" style="enable-background:new 0 0 550 550;" xml:space="preserve">
<style type="text/css">
	.st0{fill:#FFFFFF;}
</style>
<g>
	<path class="st0" d="M271.3,278.2V97c-93.1,0-168.6,81.1-168.6,181.1c0,53.1,21.3,100.9,55.2,134c1,1,2.1,2,3.1,2.8
		c6.2,5.8,12.6,10.9,19.5,15.7c6.8,4.8,14,9,21.6,12.5c5,2.5,10,4.7,15.3,6.5c17,6.1,35.1,9.4,54,9.4c93.1,0,168.6-81.1,168.6-181.1
		L271.3,278.2z M133.4,247.7c0-11.2,8.4-20.2,18.8-20.2c10.4,0,18.8,9.1,18.8,20.2c0,11.2-8.4,20.2-18.8,20.2
		C141.8,268,133.4,258.9,133.4,247.7z M167,367.4c-10.4,0-18.8-9.1-18.8-20.2c0-11.2,8.4-20.2,18.8-20.2c10.4,0,18.8,9.1,18.8,20.2
		C185.9,358.4,177.4,367.4,167,367.4z M207.1,186.3c-10.4,0-18.8-9.1-18.8-20.2c0-11.2,8.4-20.2,18.8-20.2s18.8,9.1,18.8,20.2
		C225.9,177.2,217.5,186.3,207.1,186.3z M261.6,409.6c-1.7,11-11.3,18.5-21.6,16.7s-17.2-12.2-15.6-23.2c1.7-11,11.3-18.5,21.6-16.7
		C256.3,388.1,263.3,398.5,261.6,409.6z M335.6,410.6c-10.4,0-18.8-9.1-18.8-20.2c0-11.2,8.4-20.2,18.8-20.2s18.8,9.1,18.8,20.2
		S346,410.6,335.6,410.6z M390.6,328.9c-10.4,0-18.8-9.1-18.8-20.2c0-11.2,8.4-20.2,18.8-20.2s18.8,9.1,18.8,20.2
		C409.4,319.9,401,328.9,390.6,328.9z"/>
	<path class="st0" d="M499,82l-15.1-19L326.2,207.6c-8.7-2-18.3,2.8-21.7,13v0.1l-10.3,32.9l31.6-6.9h0.1c9.5-2,15.1-10.8,14.8-20
		L499,82z"/>
</g>
</svg>
