<?xml version="1.0" encoding="utf-8"?>
<!-- Generator: Adobe Illustrator 23.0.0, SVG Export Plug-In . SVG Version: 6.00 Build 0)  -->
<svg version="1.1" id="Capa_1" width="50" xmlns="http://www.w3.org/2000/svg" xmlns:xlink="http://www.w3.org/1999/xlink" x="0px" y="0px"
	 viewBox="0 0 550 550" style="enable-background:new 0 0 550 550;" xml:space="preserve">
<style type="text/css">
	.st0{fill:#FFFFFF;}
</style>
<g>
	<path class="st0" d="M400.3,458.7H116.4c0,0-6-118,141.9-118S400.3,458.7,400.3,458.7z"/>
	<path class="st0" d="M60.2,62.5v186h79.5l18.6-17.7h199.8l18.6,17.7h79.5v-186H60.2z M158.4,204.8c0-52.3,44.7-94.7,99.9-94.7
		c55.1-0.1,99.9,42.3,99.9,94.7H158.4z"/>
	<path class="st0" d="M394.3,277.1c-75.1,71.3-196.9,71.3-272.1,0l17.4-16.6l18.6-17.7h199.7l18.6,17.7L394.3,277.1z"/>
</g>
</svg>
