<?xml version="1.0" encoding="utf-8"?>
<!-- Generator: Adobe Illustrator 23.0.0, SVG Export Plug-In . SVG Version: 6.00 Build 0)  -->
<svg version="1.1" id="Capa_1" width="50" xmlns="http://www.w3.org/2000/svg" xmlns:xlink="http://www.w3.org/1999/xlink" x="0px" y="0px"
	 viewBox="0 0 550 550" style="enable-background:new 0 0 550 550;" xml:space="preserve">
<style type="text/css">
	.st0{fill:#FFFFFF;}
</style>
<g>
	<path class="st0" d="M427,367.7v16c0,20.3-16.7,36.8-37.2,36.8h-20L427,367.7z"/>
	<path class="st0" d="M322.6,374.1l4-3.7h-104v-16.5h121.9l22.7-21l2.7-2.6l57.1-52.9V81.9H153.7c-40.5,0-73.4,32.7-73.4,72.8v265.8
		h192.1L322.6,374.1z M222.6,132h147.3v16.5H222.6V132z M222.6,206.1h147.3v16.5H222.6V206.1z M222.6,279.9h147.3v16.5H222.6V279.9z
		 M192.9,370.4h-55.4v-16.5h55.4V370.4z M192.9,296.3h-55.4v-16.5h55.4V296.3z M192.9,222.5h-55.4V206h55.4V222.5z M192.9,148.5
		h-55.4V132h55.4V148.5z"/>
	<g>
		<polygon class="st0" points="276,461.5 287.6,470.2 272.9,474.1 258.2,478.1 261.3,465.5 264.5,452.9 		"/>
		<polygon class="st0" points="379.6,346.4 357.3,366.9 339.6,383.4 264.5,452.9 287.4,470.2 381.3,383.4 382.7,382 476.5,291.9 
			457.2,274.4 382.7,343.3 		"/>
	</g>
</g>
</svg>
